<svg width="160" height="160" viewBox="0 0 160 160" fill="none" xmlns="http://www.w3.org/2000/svg">
<rect width="160" height="160" fill="black"/>
<path d="M81 30C67.4167 30 65.7208 30.0625 60.3875 30.3C55.0625 30.55 51.4375 31.3875 48.25 32.625C44.9625 33.9 42.1708 35.6125 39.3917 38.3917C36.6125 41.1708 34.8958 43.9583 33.625 47.25C32.3875 50.4375 31.5458 54.0625 31.3 59.3875C31.05 64.7208 31 66.4167 31 80C31 93.5833 31.0625 95.2792 31.3 100.613C31.55 105.933 32.3875 109.563 33.625 112.75C34.8804 116.087 36.8483 119.11 39.3917 121.608C41.8887 124.153 44.9121 126.122 48.25 127.375C51.4417 128.608 55.0667 129.454 60.3875 129.7C65.7208 129.95 67.4167 130 81 130C94.5833 130 101.613 129.7 101.613 129.7C101.613 129.7 110.563 128.608 113.75 127.375C117.086 126.118 120.109 124.15 122.608 121.608C125.154 119.112 127.123 116.088 128.375 112.75C129.608 109.563 130.454 105.933 130.7 100.613C130.95 95.2792 131 93.5833 131 80C131 66.4167 130.937 64.7208 130.7 59.3875C130.45 54.0667 129.608 50.4333 128.375 47.25C127.119 43.9134 125.151 40.8905 122.608 38.3917C120.113 35.8443 117.089 33.8758 113.75 32.625C110.563 31.3875 106.933 30.5458 101.613 30.3C96.2792 30.05 94.5833 30 81 30ZM81 39C94.3458 39 95.9375 39.0667 101.208 39.2958C106.083 39.525 108.729 40.3333 110.487 41.025C112.829 41.9292 114.487 43.0125 116.246 44.7583C117.992 46.5083 119.075 48.1708 119.979 50.5125C120.662 52.2708 121.479 54.9167 121.7 59.7917C121.937 65.0667 121.992 66.65 121.992 80C121.992 93.35 121.929 94.9375 121.683 100.208C121.429 105.083 120.617 107.729 119.929 109.487C119.116 111.657 117.837 113.623 116.183 115.246C114.567 116.901 112.603 118.176 110.433 118.979C108.683 119.662 105.996 120.479 101.121 120.7C95.8125 120.937 94.25 120.992 80.875 120.992C67.4958 120.992 65.9333 120.929 60.6292 120.683C55.75 120.429 53.0625 119.617 51.3125 118.929C49.1413 118.126 47.1778 116.846 45.5667 115.183C43.8941 113.578 42.6113 111.611 41.8167 109.433C41.1292 107.683 40.3208 104.996 40.0667 100.121C39.8792 94.8708 39.8125 93.25 39.8125 79.9375C39.8125 66.6208 39.8792 64.9958 40.0667 59.6833C40.3208 54.8083 41.1292 52.125 41.8167 50.375C42.6917 48 43.8125 46.375 45.5667 44.6208C47.3125 42.875 48.9417 41.75 51.3125 40.8792C53.0625 40.1875 55.6917 39.375 60.5667 39.125C65.8792 38.9375 67.4417 38.875 80.8125 38.875L81 39ZM81 54.325C77.6283 54.325 74.2896 54.9891 71.1746 56.2794C68.0596 57.5697 65.2292 59.4609 62.845 61.845C60.4609 64.2292 58.5697 67.0596 57.2794 70.1746C55.9891 73.2896 55.325 76.6283 55.325 80C55.325 83.3717 55.9891 86.7104 57.2794 89.8254C58.5697 92.9404 60.4609 95.7708 62.845 98.155C65.2292 100.539 68.0596 102.43 71.1746 103.721C74.2896 105.011 77.6283 105.675 81 105.675C87.8094 105.675 94.34 102.97 99.155 98.155C103.97 93.34 106.675 86.8094 106.675 80C106.675 73.1906 103.97 66.66 99.155 61.845C94.34 57.03 87.8094 54.325 81 54.325ZM81 96.6667C71.7917 96.6667 64.3333 89.2083 64.3333 80C64.3333 70.7917 71.7917 63.3333 81 63.3333C90.2083 63.3333 97.6667 70.7917 97.6667 80C97.6667 89.2083 90.2083 96.6667 81 96.6667ZM113.692 53.3125C113.634 54.8651 112.976 56.3348 111.857 57.4128C110.739 58.4908 109.245 59.093 107.692 59.093C106.138 59.093 104.645 58.4908 103.526 57.4128C102.407 56.3348 101.75 54.8651 101.692 53.3125C101.692 51.7212 102.324 50.1951 103.449 49.0699C104.574 47.9446 106.1 47.3125 107.692 47.3125C109.283 47.3125 110.809 47.9446 111.934 49.0699C113.06 50.1951 113.692 51.7212 113.692 53.3125Z" fill="#B97B1B"/>
</svg>
