<svg width="160" height="160" viewBox="0 0 160 160" fill="none" xmlns="http://www.w3.org/2000/svg">
<rect width="160" height="160" fill="black"/>
<path d="M130 55.2507V117.751C130 121.292 127.292 124.001 123.75 124.001H117.5V67.2798L80 94.209L42.5 67.2798V124.001H36.25C32.7042 124.001 30 121.292 30 117.751V55.2507C30 53.4798 30.675 51.9173 31.7958 50.8007C32.3808 50.2188 33.0762 49.7599 33.8411 49.4507C34.606 49.1416 35.4251 48.9886 36.25 49.0007H38.3333L80 79.209L121.667 49.0007H123.75C125.521 49.0007 127.083 49.6757 128.204 50.8007C129.329 51.9173 130 53.4798 130 55.2507Z" fill="#B97B1B"/>
</svg>
