<svg width="160" height="160" viewBox="0 0 160 160" fill="none" xmlns="http://www.w3.org/2000/svg">
<rect width="160" height="160" fill="black"/>
<path d="M128.804 58.6809C125.061 60.3292 121.095 61.4172 117.034 61.9099C121.309 59.3402 124.51 55.3104 126.046 50.5645C122.084 52.8769 117.692 54.5602 113.017 55.4977C109.933 52.1996 105.846 50.0122 101.391 49.275C96.9364 48.5379 92.3628 49.2923 88.3806 51.4211C84.3984 53.55 81.2306 56.9341 79.369 61.048C77.5074 65.1618 77.0562 69.7753 78.0855 74.1719C61.0445 73.3678 45.941 65.1848 35.833 52.8144C33.9948 55.9385 33.0359 59.5018 33.0582 63.1265C33.0582 70.2512 36.683 76.5135 42.1745 80.1925C38.9198 80.0889 35.7371 79.2089 32.8915 77.6259V77.8801C32.8897 82.6148 34.5259 87.2044 37.5226 90.8702C40.5193 94.5359 44.6919 97.0521 49.3325 97.9917C46.3255 98.7974 43.1761 98.9185 40.1162 98.3459C41.4339 102.42 43.9903 105.982 47.429 108.534C50.8677 111.086 55.0172 112.502 59.2987 112.583C52.0469 118.274 43.093 121.363 33.8748 121.353C32.2499 121.353 30.6291 121.257 29 121.074C38.3984 127.092 49.3263 130.286 60.4862 130.278C98.2096 130.278 118.813 99.0459 118.813 72.0053C118.813 71.1345 118.813 70.2554 118.75 69.3804C122.775 66.4841 126.247 62.8882 129 58.7642L128.804 58.6809Z" fill="#B97B1B"/>
</svg>
