<svg width="160" height="160" viewBox="0 0 160 160" fill="none" xmlns="http://www.w3.org/2000/svg">
<rect width="160" height="160" fill="black"/>
<path d="M128.912 55.7916C128.333 53.7148 127.227 51.8227 125.703 50.2981C124.178 48.7735 122.286 47.6679 120.209 47.0883C112.414 45.0001 81.0445 45.0001 81.0445 45.0001C81.0445 45.0001 49.7537 44.9584 41.8799 47.0883C39.8032 47.6679 37.9111 48.7735 36.3864 50.2981C34.8618 51.8227 33.7563 53.7148 33.1767 55.7916C31.6992 63.7717 30.9707 71.8724 31.0009 79.9881C30.9764 88.0731 31.7048 96.1429 33.1767 104.093C33.7563 106.17 34.8618 108.062 36.3864 109.586C37.9111 111.111 39.8032 112.216 41.8799 112.796C49.6662 114.889 81.0445 114.889 81.0445 114.889C81.0445 114.889 112.331 114.889 120.209 112.796C122.286 112.216 124.178 111.111 125.703 109.586C127.227 108.062 128.333 106.17 128.912 104.093C130.353 96.14 131.051 88.0702 130.996 79.9881C131.057 71.8753 130.359 63.7745 128.912 55.7916ZM71.0324 94.9561V64.9741L97.1421 79.9881L71.0324 94.9561Z" fill="#B97B1B"/>
</svg>
