<svg width="160" height="160" viewBox="0 0 160 160" fill="none" xmlns="http://www.w3.org/2000/svg">
<rect width="160" height="160" fill="black"/>
<path d="M101.909 90.211C100.665 89.5872 94.5487 86.5813 93.41 86.1626C92.267 85.7482 91.4381 85.543 90.605 86.7906C89.7802 88.034 87.3939 90.8348 86.6696 91.6638C85.9454 92.4969 85.2169 92.5974 83.9735 91.9778C82.7301 91.3498 78.7194 90.0394 73.9677 85.8026C70.2709 82.5036 67.7716 78.4301 67.0473 77.1825C66.323 75.9391 66.9719 75.2651 67.5916 74.6455C68.1525 74.0887 68.8391 73.1927 69.4587 72.4685C70.0825 71.74 70.2877 71.2209 70.7063 70.3878C71.1208 69.5588 70.9157 68.8345 70.6017 68.2108C70.2877 67.587 67.8009 61.462 66.7668 58.9711C65.7537 56.547 64.728 56.8778 63.966 56.8359C63.171 56.8042 62.3753 56.7903 61.5797 56.794C60.7507 56.794 59.4027 57.1038 58.2639 58.3514C57.1252 59.5948 53.9099 62.605 53.9099 68.7299C53.9099 74.8506 58.3686 80.7662 58.9882 81.5993C59.612 82.4282 67.7632 94.9962 80.2433 100.384C83.2115 101.665 85.5267 102.432 87.3353 103.001C90.3161 103.951 93.029 103.817 95.1683 103.495C97.5588 103.139 102.528 100.485 103.567 97.5793C104.605 94.6739 104.605 92.1829 104.291 91.6638C103.981 91.1446 103.152 90.8348 101.904 90.211M79.2092 121.204H79.1925C71.7813 121.205 64.5064 119.212 58.13 115.435L56.6186 114.539L40.9568 118.65L45.1349 103.378L44.1511 101.812C40.0083 95.2151 37.8166 87.5806 37.8294 79.7907C37.8336 56.9741 56.4009 38.4109 79.226 38.4109C90.2784 38.4109 100.669 42.7231 108.482 50.5435C112.336 54.381 115.391 58.9448 117.47 63.9708C119.549 68.9968 120.611 74.3852 120.593 79.8242C120.581 102.641 102.017 121.204 79.2092 121.204ZM114.431 44.6028C109.818 39.9596 104.329 36.278 98.2835 33.7714C92.2375 31.2648 85.7542 29.9829 79.2092 30.0002C51.7664 30.0002 29.4312 52.3354 29.4187 79.7865C29.4187 88.5615 31.7087 97.1272 36.0669 104.676L29 130.477L55.3962 123.553C62.6958 127.53 70.8756 129.614 79.1883 129.615H79.2092C106.648 129.615 128.987 107.28 129 79.8242C129.02 73.2818 127.743 66.8003 125.242 60.7547C122.741 54.709 119.067 49.2192 114.431 44.6028Z" fill="#B97B1B"/>
</svg>
