<svg width="81" height="80" viewBox="0 0 81 80" fill="none" xmlns="http://www.w3.org/2000/svg">
<path d="M80.4863 40.2465C80.4863 18.017 62.4693 0 40.2432 0C18.017 0 0 18.017 0 40.2465C0 60.3295 14.7168 76.9781 33.9546 79.9966V51.8778H23.7387V40.2432H33.9546V31.3789C33.9546 21.2904 39.9648 15.7196 49.1544 15.7196C53.558 15.7196 58.1629 16.5044 58.1629 16.5044V26.4084H53.0919C48.0946 26.4084 46.535 29.5108 46.535 32.6936V40.2465H57.6967L55.9125 51.8811H46.535V80C65.7729 76.9815 80.4897 60.3329 80.4897 40.2465H80.4863Z" fill="white"/>
</svg>
