<svg width="80" height="60" viewBox="0 0 80 60" fill="none" xmlns="http://www.w3.org/2000/svg">
<path d="M80 5.00053V55.0005C80 57.8339 77.8333 60.0005 75 60.0005H70V14.6239L40 36.1672L10 14.6239V60.0005H5C2.16333 60.0005 0 57.8339 0 55.0005V5.00053C0 3.58386 0.54 2.33386 1.43667 1.44053C1.90461 0.975063 2.46093 0.607881 3.07287 0.360583C3.68482 0.113286 4.34004 -0.00913254 5 0.00053057H6.66667L40 24.1672L73.3333 0.00053057H75C76.4167 0.00053057 77.6667 0.54053 78.5633 1.44053C79.4633 2.33386 80 3.58386 80 5.00053Z" fill="white"/>
</svg>
