<svg width="80" height="56" viewBox="0 0 80 56" fill="none" xmlns="http://www.w3.org/2000/svg">
<path d="M78.3298 8.63325C77.8661 6.97184 76.9817 5.45814 75.762 4.23845C74.5424 3.01877 73.0286 2.13434 71.3672 1.67067C65.1316 4.79002e-05 40.0356 4.73028e-05 40.0356 4.73028e-05C40.0356 4.73028e-05 15.003 -0.0332978 8.70395 1.67067C7.04254 2.13434 5.52884 3.01877 4.30915 4.23845C3.08947 5.45814 2.20504 6.97184 1.74137 8.63325C0.55933 15.0173 -0.0234202 21.4979 0.000720242 27.9904C-0.0188566 34.4585 0.563874 40.9143 1.74137 47.2743C2.20504 48.9357 3.08947 50.4494 4.30915 51.6691C5.52884 52.8888 7.04254 53.7732 8.70395 54.2369C14.9329 55.9108 40.0356 55.9108 40.0356 55.9108C40.0356 55.9108 65.0649 55.9108 71.3672 54.2369C73.0286 53.7732 74.5424 52.8888 75.762 51.6691C76.9817 50.4494 77.8661 48.9357 78.3298 47.2743C79.4827 40.912 80.0409 34.4562 79.9971 27.9904C80.0455 21.5002 79.4873 15.0196 78.3298 8.63325ZM32.026 39.9649V15.9793L52.9137 27.9904L32.026 39.9649Z" fill="white"/>
</svg>
