<svg width="80" height="66" viewBox="0 0 80 66" fill="none" xmlns="http://www.w3.org/2000/svg">
<path d="M79.8433 7.74469C76.8484 9.06332 73.6756 9.93374 70.4271 10.3279C73.8473 8.27217 76.4082 5.04829 77.6368 1.25163C74.4669 3.10155 70.9537 4.44816 67.2139 5.19813C64.7465 2.55968 61.477 0.809721 57.9131 0.220013C54.3491 -0.369696 50.6902 0.233842 47.5045 1.93691C44.3187 3.63997 41.7845 6.34725 40.2952 9.63836C38.8059 12.9295 38.4449 16.6202 39.2684 20.1375C25.6356 19.4942 13.5528 12.9478 5.46644 3.05156C3.99581 5.55083 3.22875 8.40142 3.24653 11.3012C3.24653 17.001 6.14641 22.0108 10.5396 24.954C7.93586 24.8711 5.38968 24.1671 3.1132 22.9007V23.1041C3.11173 26.8919 4.42071 30.5635 6.81807 33.4961C9.21543 36.4288 12.5535 38.4417 16.266 39.1934C13.8604 39.838 11.3409 39.9348 8.89296 39.4767C9.94709 42.7363 11.9923 45.5857 14.7432 47.6274C17.4942 49.6691 20.8138 50.8014 24.239 50.8662C18.4375 55.419 11.2744 57.89 3.89984 57.8826C2.59989 57.8826 1.30328 57.8059 0 57.6593C7.51872 62.4735 16.261 65.029 25.189 65.0223C55.3677 65.0223 71.8503 40.0367 71.8503 18.4043C71.8503 17.7076 71.8503 17.0043 71.8003 16.3043C75.0201 13.9873 77.7975 11.1106 80 7.81136L79.8433 7.74469Z" fill="white"/>
</svg>
