<svg width="80" height="80" viewBox="0 0 80 80" fill="none" xmlns="http://www.w3.org/2000/svg">
<path d="M58.0499 47.9401C57.0599 47.4434 52.1899 45.0501 51.2832 44.7167C50.3732 44.3867 49.7132 44.2234 49.0499 45.2167C48.3933 46.2067 46.4933 48.4367 45.9166 49.0967C45.3399 49.7601 44.7599 49.8401 43.7699 49.3467C42.7799 48.8467 39.5866 47.8034 35.8033 44.4301C32.8599 41.8034 30.8699 38.5601 30.2933 37.5667C29.7166 36.5767 30.2333 36.0401 30.7266 35.5467C31.1733 35.1034 31.7199 34.3901 32.2133 33.8134C32.7099 33.2334 32.8733 32.8201 33.2066 32.1567C33.5366 31.4968 33.3733 30.9201 33.1233 30.4234C32.8733 29.9268 30.8933 25.0501 30.07 23.0668C29.2633 21.1368 28.4466 21.4001 27.84 21.3668C27.2069 21.3416 26.5735 21.3304 25.94 21.3334C25.28 21.3334 24.2066 21.5801 23.3 22.5734C22.3933 23.5634 19.8333 25.9601 19.8333 30.8368C19.8333 35.7101 23.3833 40.4201 23.8766 41.0834C24.3733 41.7434 30.8633 51.75 40.7999 56.04C43.1633 57.06 45.0066 57.67 46.4466 58.1234C48.8199 58.88 50.9799 58.7734 52.6832 58.5167C54.5866 58.2334 58.5432 56.12 59.3699 53.8067C60.1966 51.4934 60.1966 49.5101 59.9466 49.0967C59.6999 48.6834 59.0399 48.4367 58.0466 47.9401M39.9766 72.6167H39.9633C34.0625 72.6172 28.2702 71.0306 23.1933 68.0234L21.99 67.31L9.51999 70.5833L12.8466 58.4234L12.0633 57.1767C8.76478 51.9243 7.01979 45.8457 7.02999 39.6434C7.03332 21.4768 21.8166 6.69679 39.9899 6.69679C48.7899 6.69679 57.0632 10.1301 63.2832 16.3568C66.3521 19.4122 68.7846 23.0459 70.4399 27.0476C72.0952 31.0493 72.9404 35.3395 72.9265 39.6701C72.9165 57.8367 58.1366 72.6167 39.9766 72.6167ZM68.0199 11.6268C64.3472 7.92987 59.9773 4.99858 55.1635 3.0028C50.3497 1.00701 45.1877 -0.0135875 39.9766 0.000136592C18.1266 0.000136592 0.343333 17.7834 0.333333 39.6401C0.333333 46.6267 2.15666 53.4467 5.62666 59.4567L0 80L21.0166 74.4867C26.8286 77.6531 33.3414 79.3125 39.9599 79.3133H39.9766C61.8232 79.3133 79.6099 61.53 79.6199 39.6701C79.636 34.461 78.6191 29.3004 76.628 24.4869C74.6369 19.6733 71.7111 15.3023 68.0199 11.6268Z" fill="white"/>
</svg>
