<svg width="140" height="141" viewBox="0 0 140 141" fill="none" xmlns="http://www.w3.org/2000/svg">
<path d="M89.8554 3.68978C84.3154 -1.38874 75.7584 -1.20281 70.4442 4.11149L4.1112 70.4466C-1.37045 75.9285 -1.37038 84.816 4.1113 90.2976L13.3972 99.5833C16.8778 103.064 21.8852 102.226 24.8345 100.26C26.5811 99.096 28.6756 98.4172 30.9408 98.4172C37.0319 98.4172 41.9698 103.355 41.9698 109.446C41.9698 111.712 41.2912 113.807 40.127 115.553C38.1612 118.502 37.323 123.509 40.8037 126.99L49.8721 136.058C55.4717 141.658 64.5921 141.52 70.0194 135.753L136.185 65.4527C141.548 59.7549 141.216 50.7724 135.449 45.4851L126.561 37.3381C124.365 35.3257 121.587 34.9456 119.276 35.358C117 35.764 114.842 36.9686 113.284 38.6749C111.262 40.8907 108.363 42.2718 105.136 42.2718C99.0448 42.2718 94.1069 37.334 94.1069 31.2428C94.1069 28.3565 95.2098 25.7372 97.0255 23.7688C98.5917 22.07 99.6053 19.8158 99.8129 17.5133C100.023 15.1749 99.4028 12.4416 97.208 10.4302L89.8554 3.68978Z" fill="#B97B1B"/>
</svg>
