<svg width="120" height="120" viewBox="0 0 120 120" fill="none" xmlns="http://www.w3.org/2000/svg">
<circle cx="60" cy="60" r="60" fill="#D9D9D9"/>
<path d="M68.5095 33.5813C66.1352 31.4048 62.4679 31.4845 60.1904 33.7621L31.7619 62.1914C29.4127 64.5408 29.4127 68.3497 31.762 70.699L35.7417 74.6785C37.2333 76.1705 39.3794 75.8112 40.6434 74.9686C41.3919 74.4697 42.2895 74.1788 43.2603 74.1788C45.8708 74.1788 47.987 76.2951 47.987 78.9055C47.987 79.8766 47.6962 80.7743 47.1973 81.5228C46.3548 82.7866 45.9956 84.9325 47.4873 86.4244L51.3738 90.3106C53.7736 92.7105 57.6823 92.6512 60.0083 90.18L88.3648 60.0512C90.6633 57.6092 90.521 53.7596 88.0494 51.4936L84.2405 48.002C83.2995 47.1396 82.1088 46.9767 81.1183 47.1534C80.1429 47.3274 79.2182 47.8437 78.5504 48.5749C77.6837 49.5246 76.4414 50.1165 75.0582 50.1165C72.4478 50.1165 70.3315 48.0003 70.3315 45.3898C70.3315 44.1528 70.8042 43.0302 71.5824 42.1866C72.2536 41.4586 72.688 40.4925 72.7769 39.5057C72.8672 38.5035 72.6012 37.3321 71.6606 36.4701L68.5095 33.5813Z" fill="#B97B1B"/>
</svg>
