<svg width="60" height="61" viewBox="0 0 60 61" fill="none" xmlns="http://www.w3.org/2000/svg">
<path d="M38.5095 1.58133C36.1352 -0.595172 32.4679 -0.515488 30.1904 1.76207L1.76194 30.1914C-0.587337 32.5408 -0.587307 36.3497 1.76199 38.699L5.74167 42.6785C7.23333 44.1705 9.37939 43.8112 10.6434 42.9686C11.3919 42.4697 12.2895 42.1788 13.2603 42.1788C15.8708 42.1788 17.987 44.2951 17.987 46.9055C17.987 47.8766 17.6962 48.7743 17.1973 49.5228C16.3548 50.7866 15.9956 52.9325 17.4873 54.4244L21.3738 58.3106C23.7736 60.7105 27.6823 60.6512 30.0083 58.18L58.3648 28.0512C60.6633 25.6092 60.521 21.7596 58.0494 19.4936L54.2405 16.002C53.2995 15.1396 52.1088 14.9767 51.1183 15.1534C50.1429 15.3274 49.2182 15.8437 48.5504 16.5749C47.6837 17.5246 46.4414 18.1165 45.0582 18.1165C42.4478 18.1165 40.3315 16.0003 40.3315 13.3898C40.3315 12.1528 40.8042 11.0302 41.5824 10.1866C42.2536 9.45858 42.688 8.49248 42.7769 7.50571C42.8672 6.50352 42.6012 5.33211 41.6606 4.47009L38.5095 1.58133Z" fill="#B97B1B"/>
</svg>
